<?xml version="1.0" encoding="utf-8"?>
<!-- Generator: Adobe Illustrator 25.0.0, SVG Export Plug-In . SVG Version: 6.00 Build 0)  -->
<svg version="1.1" id="Capa_1" xmlns="http://www.w3.org/2000/svg" xmlns:xlink="http://www.w3.org/1999/xlink" x="0px" y="0px"
	 viewBox="0 0 1000 1000" style="enable-background:new 0 0 1000 1000;" xml:space="preserve">
<style type="text/css">
	.st0{fill:none;stroke:#000000;stroke-width:20;stroke-miterlimit:10;}
</style>
<path class="st0" d="M935.2,405.6c-16.7,17.3-32.9,34.6-49.8,51.2c-45.4,44.7-91.3,89-137,133.4c-7.2,7-14.9,13.7-21.5,21.4
	c-2.6,3.1-4.3,8.6-3.6,12.5c16.6,98.7,33.5,197.3,50.4,296c0.1,0.4,0,0.9-0.1,1.6c-0.2,0.9-4.4-0.6-9.5-3.3
	c-17.7-9.2-35.1-18.3-52.5-27.5C642.7,854.7,573.7,818.5,505,782c-6-3.2-10.1-1.7-15.3,1c-86.1,45.4-172.2,90.7-258.4,136
	c-1.5,0.8-3,1.5-4.6,2.2c-2.6,1.2-3.9-2.5-2.9-8.2c3.9-23.3,7.6-46,11.5-68.6c12.7-74,25.7-147.9,38.1-221.9
	c0.6-3.5-1.9-8.7-4.6-11.4c-44.7-44-90-87.3-134.3-131.7c-24.2-24.3-47.2-49.8-69.8-74.1c-3.9-4.2-2.5-8.3,3.2-9.2
	c11.9-1.8,25.7-3.9,39.6-5.9c60.5-8.8,121.1-17.6,181.6-26.5c20.3-3,40.5-6.5,60.9-8.6c7.7-0.8,11.4-4,14.6-10.6
	c42.2-86.1,84.7-172.1,127.1-258.1c0.9-1.9,1.9-3.7,3-5.7c1.7-3.1,4.3-3.7,5.9-1.1c1,1.6,1.9,3.1,2.7,4.7
	c42.9,86.9,85.9,173.8,128.6,260.9c3.1,6.3,6.6,9,13.8,10C734.5,367.9,823.2,381,912,394c6.7,1,13.4,1.9,20.1,2.8
	C937.8,397.4,939.2,401.4,935.2,405.6L935.2,405.6z"/>
</svg>
